<svg t="1764641088178" class="icon" viewBox="0 0 1024 1024" version="1.1" xmlns="http://www.w3.org/2000/svg" p-id="12892" width="200" height="200"><path d="M960.51 411.69l-110.7-82.95a24.12 24.12 0 0 0-33.81 4.85l-83 110.72a24.16 24.16 0 0 0 4.85 33.81l41.7 31.24c-3.6 6.14-7.14 11.95-10.57 17.44-6.93 11-13.71 20.74-19.58 29.08-19 26.39-33.83 42.84-42.61 51.88C697 618.05 687.64 627.6 673 638.3c-16.64 12.1-32.37 23.31-54.1 23.44a69.4 69.4 0 0 1-21.77-3.43c-24.87-8.31-40.8-31.8-56.52-66.88C524.32 555.3 524.67 543.36 508 492c-16.47-51.51-25.06-77.55-42.26-98.67-11.57-14.25-37.59-46.43-77.26-53.11-66.21-11.38-125.85 55.81-157.15 90.91-5.41 6.13-11.5 14-17.22 21.81l-39.33-29.43A24.11 24.11 0 0 0 141 428.4L58.08 539.11A24.11 24.11 0 0 0 63 572.9l110.7 83a24.14 24.14 0 0 0 33.8-4.9l82.91-110.66a24.16 24.16 0 0 0-4.84-33.8L244 475.38a276.82 276.82 0 0 1 18.86-23c28.17-30 79.94-86 127.33-73.75 36.07 9.39 55.24 54.21 69.89 88.54 11.33 26.57 7.5 30.19 24.86 82.43 13.37 40.3 20.13 60.36 33.31 80.77 16.09 24.54 35.28 54.55 71.52 65.07 50.87 14.82 99.36-19.52 110-27.67 10-7.59 18.66-16.8 35.66-35.42a576 576 0 0 0 41-49.52c7.32-9.75 15.19-21.15 23.44-34 3.36-5.34 6.8-10.82 10.24-16.69l38.54 28.91a24.14 24.14 0 0 0 33.79-4.83l83-110.73a24.11 24.11 0 0 0-4.86-33.83zM250.33 528.78l-65.17 87-87-65.17 65.18-87 58.14 43.55 0.13 0.12z m609.8-7.78l-87-65.17 65.17-87 87 65.17z m0 0" p-id="12893"></path></svg>