<svg t="1762230240325" class="icon" viewBox="0 0 1024 1024" version="1.1" xmlns="http://www.w3.org/2000/svg" p-id="13268" width="24" height="24"><path d="M851.968 276.48L718.848 143.36c-10.24-10.24-26.624-10.24-36.864 0s-12.288 22.528-4.096 32.768l88.064 88.064H444.416c-159.744 0-290.816 129.024-290.816 286.72s124.928 282.624 282.624 286.72h307.2c16.384 0 26.624-10.24 26.624-26.624 0-12.288-10.24-24.576-22.528-26.624H444.416c-131.072 0-237.568-104.448-237.568-233.472 0-122.88 102.4-229.376 229.376-233.472h329.728l-83.968 83.968c-10.24 10.24-12.288 22.528-4.096 32.768l4.096 4.096c10.24 10.24 22.528 12.288 32.768 4.096l133.12-133.12c10.24-10.24 12.288-22.528 4.096-32.768z" fill="#333333" p-id="13269"></path></svg>