<svg t="1765789370706" class="icon" viewBox="0 0 1024 1024" version="1.1" xmlns="http://www.w3.org/2000/svg" p-id="4626" width="200" height="200"><path d="M311.296 460.8h266.24c59.392 0 108.544-49.152 108.544-108.544s-49.152-108.544-108.544-108.544h-266.24V460.8z m-30.72-296.96h296.96C681.984 163.84 768 247.808 768 354.304c0 55.296-22.528 104.448-61.44 139.264 55.296 34.816 92.16 98.304 92.16 167.936 0 110.592-90.112 198.656-198.656 198.656h-368.64V163.84h49.152z m30.72 614.4h286.72c65.536 0 116.736-53.248 116.736-116.736s-53.248-116.736-116.736-116.736h-286.72V778.24z" p-id="4627"></path></svg>