<svg t="1765504519946" class="icon" viewBox="0 0 1024 1024" version="1.1" xmlns="http://www.w3.org/2000/svg" p-id="2260" width="200" height="200"><path d="M768 358.4h-128V204.8c0-40.96-35.84-76.8-76.8-76.8H460.8c-40.96 0-76.8 35.84-76.8 76.8v153.6H256c-40.96 0-76.8 35.84-76.8 76.8V716.8c0 71.68 56.32 128 128 128h409.6c71.68 0 128-56.32 128-128V435.2c0-40.96-35.84-76.8-76.8-76.8z m25.6 358.4c0 40.96-35.84 76.8-76.8 76.8h-25.6V716.8c0-15.36-10.24-25.6-25.6-25.6s-25.6 10.24-25.6 25.6v76.8h-102.4v-102.4c0-15.36-10.24-25.6-25.6-25.6s-25.6 10.24-25.6 25.6v102.4h-102.4V716.8c0-15.36-10.24-25.6-25.6-25.6s-25.6 10.24-25.6 25.6v76.8H307.2c-40.96 0-76.8-35.84-76.8-76.8v-179.2h563.2V716.8z m0-230.4h-563.2v-51.2c0-15.36 10.24-25.6 25.6-25.6h128c30.72 0 51.2-20.48 51.2-51.2V204.8c0-15.36 10.24-25.6 25.6-25.6h102.4c15.36 0 25.6 10.24 25.6 25.6v153.6c0 30.72 20.48 51.2 51.2 51.2H768c15.36 0 25.6 10.24 25.6 25.6v51.2z" p-id="2261"></path></svg>