<svg t="1772521732196" class="icon" viewBox="0 0 1024 1024" version="1.1" xmlns="http://www.w3.org/2000/svg" p-id="6628" width="200" height="200"><path d="M512.32 747.2c-104.32 0-202.773-23.147-277.12-65.173-37.333-21.12-66.773-45.867-87.573-73.707C125.013 578.133 113.6 545.707 113.6 512c0-33.707 11.413-66.133 34.027-96.32 20.8-27.84 50.346-52.693 87.573-73.707C309.547 299.947 408 276.8 512.32 276.8s202.773 23.147 277.12 65.173c37.333 21.12 66.773 45.867 87.573 73.707 22.614 30.187 34.027 62.613 34.027 96.32 0 33.707-11.413 66.133-34.027 96.32-20.8 27.84-50.346 52.693-87.573 73.707-74.347 42.026-172.8 65.173-277.12 65.173z m0-425.28c-96.64 0-187.2 21.12-254.933 59.307-63.68 35.946-98.667 82.346-98.667 130.666s35.093 94.72 98.667 130.667c67.733 38.293 158.293 59.307 254.933 59.307s187.2-21.12 254.933-59.307c63.68-35.947 98.667-82.347 98.667-130.667s-35.093-94.72-98.667-130.666C699.52 343.04 608.96 321.92 512.32 321.92z" p-id="6629"></path></svg>